<mxfile host="app.diagrams.net" modified="2023-01-03T11:17:01.110Z" agent="5.0 (X11; Ubuntu)" version="20.7.4" etag="CCOynJnI36Ew4wAq9iuQ" type="github">
  <diagram id="iZoi2SDaWrMsvpVoDAiL" name="Страница 1">
    <mxGraphModel dx="1122" dy="737" grid="1" gridSize="10" guides="1" tooltips="1" connect="1" arrows="1" fold="1" page="1" pageScale="1" pageWidth="827" pageHeight="1169" math="0" shadow="0">
      <root>
        <mxCell id="0" />
        <mxCell id="1" parent="0" />
        <mxCell id="kMaZlmLHkg67jmdYYLUq-65" value="например" style="edgeStyle=orthogonalEdgeStyle;rounded=0;orthogonalLoop=1;jettySize=auto;html=1;exitX=1;exitY=0;exitDx=0;exitDy=0;" edge="1" parent="1" source="kMaZlmLHkg67jmdYYLUq-1" target="kMaZlmLHkg67jmdYYLUq-7">
          <mxGeometry relative="1" as="geometry">
            <Array as="points">
              <mxPoint x="202" y="170" />
            </Array>
          </mxGeometry>
        </mxCell>
        <mxCell id="kMaZlmLHkg67jmdYYLUq-66" value="например" style="edgeStyle=orthogonalEdgeStyle;rounded=0;orthogonalLoop=1;jettySize=auto;html=1;exitX=0;exitY=1;exitDx=0;exitDy=0;entryX=0;entryY=0.5;entryDx=0;entryDy=0;" edge="1" parent="1" source="kMaZlmLHkg67jmdYYLUq-1" target="kMaZlmLHkg67jmdYYLUq-2">
          <mxGeometry relative="1" as="geometry">
            <Array as="points">
              <mxPoint x="40" y="278" />
              <mxPoint x="40" y="570" />
            </Array>
          </mxGeometry>
        </mxCell>
        <mxCell id="kMaZlmLHkg67jmdYYLUq-1" value="" style="ellipse;whiteSpace=wrap;html=1;" vertex="1" parent="1">
          <mxGeometry x="100" y="210" width="120" height="80" as="geometry" />
        </mxCell>
        <mxCell id="kMaZlmLHkg67jmdYYLUq-2" value="" style="ellipse;whiteSpace=wrap;html=1;" vertex="1" parent="1">
          <mxGeometry x="100" y="530" width="120" height="80" as="geometry" />
        </mxCell>
        <mxCell id="kMaZlmLHkg67jmdYYLUq-67" style="edgeStyle=orthogonalEdgeStyle;rounded=0;orthogonalLoop=1;jettySize=auto;html=1;exitX=0;exitY=0.5;exitDx=0;exitDy=0;entryX=0;entryY=0.5;entryDx=0;entryDy=0;" edge="1" parent="1" source="kMaZlmLHkg67jmdYYLUq-3" target="kMaZlmLHkg67jmdYYLUq-1">
          <mxGeometry relative="1" as="geometry" />
        </mxCell>
        <mxCell id="kMaZlmLHkg67jmdYYLUq-68" value="например" style="edgeStyle=orthogonalEdgeStyle;rounded=0;orthogonalLoop=1;jettySize=auto;html=1;exitX=0.5;exitY=0;exitDx=0;exitDy=0;entryX=0;entryY=0.5;entryDx=0;entryDy=0;" edge="1" parent="1" source="kMaZlmLHkg67jmdYYLUq-3" target="kMaZlmLHkg67jmdYYLUq-9">
          <mxGeometry relative="1" as="geometry" />
        </mxCell>
        <mxCell id="kMaZlmLHkg67jmdYYLUq-69" value="например" style="edgeStyle=orthogonalEdgeStyle;rounded=0;orthogonalLoop=1;jettySize=auto;html=1;exitX=0.5;exitY=1;exitDx=0;exitDy=0;entryX=0.025;entryY=0.6;entryDx=0;entryDy=0;entryPerimeter=0;" edge="1" parent="1" source="kMaZlmLHkg67jmdYYLUq-3" target="kMaZlmLHkg67jmdYYLUq-8">
          <mxGeometry relative="1" as="geometry" />
        </mxCell>
        <mxCell id="kMaZlmLHkg67jmdYYLUq-3" value="" style="ellipse;whiteSpace=wrap;html=1;" vertex="1" parent="1">
          <mxGeometry x="100" y="370" width="120" height="80" as="geometry" />
        </mxCell>
        <mxCell id="kMaZlmLHkg67jmdYYLUq-4" value="" style="ellipse;whiteSpace=wrap;html=1;" vertex="1" parent="1">
          <mxGeometry x="100" y="670" width="120" height="80" as="geometry" />
        </mxCell>
        <mxCell id="kMaZlmLHkg67jmdYYLUq-46" value="имеет" style="edgeStyle=orthogonalEdgeStyle;rounded=0;orthogonalLoop=1;jettySize=auto;html=1;entryX=0.558;entryY=1;entryDx=0;entryDy=0;entryPerimeter=0;exitX=0;exitY=0.5;exitDx=0;exitDy=0;" edge="1" parent="1" source="kMaZlmLHkg67jmdYYLUq-5" target="kMaZlmLHkg67jmdYYLUq-40">
          <mxGeometry relative="1" as="geometry">
            <Array as="points">
              <mxPoint x="50" y="910" />
              <mxPoint x="50" y="1570" />
              <mxPoint x="527" y="1570" />
            </Array>
          </mxGeometry>
        </mxCell>
        <mxCell id="kMaZlmLHkg67jmdYYLUq-51" value="например" style="edgeStyle=orthogonalEdgeStyle;rounded=0;orthogonalLoop=1;jettySize=auto;html=1;exitX=0;exitY=1;exitDx=0;exitDy=0;entryX=0;entryY=0.5;entryDx=0;entryDy=0;" edge="1" parent="1" source="kMaZlmLHkg67jmdYYLUq-5" target="kMaZlmLHkg67jmdYYLUq-38">
          <mxGeometry relative="1" as="geometry">
            <Array as="points">
              <mxPoint x="118" y="1180" />
            </Array>
          </mxGeometry>
        </mxCell>
        <mxCell id="kMaZlmLHkg67jmdYYLUq-52" value="например" style="edgeStyle=orthogonalEdgeStyle;rounded=0;orthogonalLoop=1;jettySize=auto;html=1;exitX=0.5;exitY=1;exitDx=0;exitDy=0;" edge="1" parent="1" source="kMaZlmLHkg67jmdYYLUq-5" target="kMaZlmLHkg67jmdYYLUq-36">
          <mxGeometry relative="1" as="geometry">
            <Array as="points">
              <mxPoint x="160" y="1120" />
              <mxPoint x="650" y="1120" />
            </Array>
          </mxGeometry>
        </mxCell>
        <mxCell id="kMaZlmLHkg67jmdYYLUq-57" style="edgeStyle=orthogonalEdgeStyle;rounded=0;orthogonalLoop=1;jettySize=auto;html=1;exitX=1;exitY=0.5;exitDx=0;exitDy=0;entryX=0;entryY=0.5;entryDx=0;entryDy=0;" edge="1" parent="1" source="kMaZlmLHkg67jmdYYLUq-5" target="kMaZlmLHkg67jmdYYLUq-17">
          <mxGeometry relative="1" as="geometry" />
        </mxCell>
        <mxCell id="kMaZlmLHkg67jmdYYLUq-5" value="" style="ellipse;whiteSpace=wrap;html=1;" vertex="1" parent="1">
          <mxGeometry x="100" y="870" width="120" height="80" as="geometry" />
        </mxCell>
        <mxCell id="kMaZlmLHkg67jmdYYLUq-7" value="" style="ellipse;whiteSpace=wrap;html=1;" vertex="1" parent="1">
          <mxGeometry x="330" y="130" width="120" height="80" as="geometry" />
        </mxCell>
        <mxCell id="kMaZlmLHkg67jmdYYLUq-74" value="находится на " style="edgeStyle=orthogonalEdgeStyle;rounded=0;orthogonalLoop=1;jettySize=auto;html=1;exitX=0;exitY=1;exitDx=0;exitDy=0;entryX=1.008;entryY=0.6;entryDx=0;entryDy=0;entryPerimeter=0;" edge="1" parent="1" source="kMaZlmLHkg67jmdYYLUq-8" target="kMaZlmLHkg67jmdYYLUq-2">
          <mxGeometry relative="1" as="geometry">
            <Array as="points">
              <mxPoint x="348" y="578" />
            </Array>
          </mxGeometry>
        </mxCell>
        <mxCell id="kMaZlmLHkg67jmdYYLUq-75" value="это" style="edgeStyle=orthogonalEdgeStyle;rounded=0;orthogonalLoop=1;jettySize=auto;html=1;exitX=0.5;exitY=0;exitDx=0;exitDy=0;entryX=0.067;entryY=0.238;entryDx=0;entryDy=0;entryPerimeter=0;" edge="1" parent="1" source="kMaZlmLHkg67jmdYYLUq-8" target="kMaZlmLHkg67jmdYYLUq-14">
          <mxGeometry relative="1" as="geometry" />
        </mxCell>
        <mxCell id="kMaZlmLHkg67jmdYYLUq-8" value="" style="ellipse;whiteSpace=wrap;html=1;" vertex="1" parent="1">
          <mxGeometry x="330" y="450" width="120" height="80" as="geometry" />
        </mxCell>
        <mxCell id="kMaZlmLHkg67jmdYYLUq-70" value="находится на" style="edgeStyle=orthogonalEdgeStyle;rounded=0;orthogonalLoop=1;jettySize=auto;html=1;exitX=0.5;exitY=0;exitDx=0;exitDy=0;entryX=0.5;entryY=1;entryDx=0;entryDy=0;" edge="1" parent="1" source="kMaZlmLHkg67jmdYYLUq-9" target="kMaZlmLHkg67jmdYYLUq-7">
          <mxGeometry relative="1" as="geometry" />
        </mxCell>
        <mxCell id="kMaZlmLHkg67jmdYYLUq-71" value="это" style="edgeStyle=orthogonalEdgeStyle;rounded=0;orthogonalLoop=1;jettySize=auto;html=1;exitX=1;exitY=0;exitDx=0;exitDy=0;entryX=0;entryY=0.5;entryDx=0;entryDy=0;" edge="1" parent="1" source="kMaZlmLHkg67jmdYYLUq-9" target="kMaZlmLHkg67jmdYYLUq-12">
          <mxGeometry relative="1" as="geometry" />
        </mxCell>
        <mxCell id="kMaZlmLHkg67jmdYYLUq-9" value="" style="ellipse;whiteSpace=wrap;html=1;" vertex="1" parent="1">
          <mxGeometry x="330" y="290" width="120" height="80" as="geometry" />
        </mxCell>
        <mxCell id="kMaZlmLHkg67jmdYYLUq-61" value="наследник" style="edgeStyle=orthogonalEdgeStyle;rounded=0;orthogonalLoop=1;jettySize=auto;html=1;exitX=0;exitY=0.5;exitDx=0;exitDy=0;entryX=0.5;entryY=0;entryDx=0;entryDy=0;" edge="1" parent="1" source="kMaZlmLHkg67jmdYYLUq-10" target="kMaZlmLHkg67jmdYYLUq-4">
          <mxGeometry relative="1" as="geometry" />
        </mxCell>
        <mxCell id="kMaZlmLHkg67jmdYYLUq-62" value="например" style="edgeStyle=orthogonalEdgeStyle;rounded=0;orthogonalLoop=1;jettySize=auto;html=1;exitX=0.5;exitY=0;exitDx=0;exitDy=0;entryX=0;entryY=0;entryDx=0;entryDy=0;" edge="1" parent="1" source="kMaZlmLHkg67jmdYYLUq-10" target="kMaZlmLHkg67jmdYYLUq-13">
          <mxGeometry relative="1" as="geometry">
            <Array as="points">
              <mxPoint x="390" y="570" />
              <mxPoint x="598" y="570" />
            </Array>
          </mxGeometry>
        </mxCell>
        <mxCell id="kMaZlmLHkg67jmdYYLUq-63" value="например" style="edgeStyle=orthogonalEdgeStyle;rounded=0;orthogonalLoop=1;jettySize=auto;html=1;exitX=0.5;exitY=1;exitDx=0;exitDy=0;entryX=0.5;entryY=1;entryDx=0;entryDy=0;" edge="1" parent="1" source="kMaZlmLHkg67jmdYYLUq-10" target="kMaZlmLHkg67jmdYYLUq-13">
          <mxGeometry relative="1" as="geometry" />
        </mxCell>
        <mxCell id="kMaZlmLHkg67jmdYYLUq-10" value="" style="ellipse;whiteSpace=wrap;html=1;" vertex="1" parent="1">
          <mxGeometry x="330" y="590" width="120" height="80" as="geometry" />
        </mxCell>
        <mxCell id="kMaZlmLHkg67jmdYYLUq-60" value="наследник" style="edgeStyle=orthogonalEdgeStyle;rounded=0;orthogonalLoop=1;jettySize=auto;html=1;exitX=0;exitY=0.5;exitDx=0;exitDy=0;entryX=0.5;entryY=1;entryDx=0;entryDy=0;" edge="1" parent="1" source="kMaZlmLHkg67jmdYYLUq-11" target="kMaZlmLHkg67jmdYYLUq-4">
          <mxGeometry relative="1" as="geometry" />
        </mxCell>
        <mxCell id="kMaZlmLHkg67jmdYYLUq-64" value="например" style="edgeStyle=orthogonalEdgeStyle;rounded=0;orthogonalLoop=1;jettySize=auto;html=1;exitX=1;exitY=0.5;exitDx=0;exitDy=0;" edge="1" parent="1" source="kMaZlmLHkg67jmdYYLUq-11" target="kMaZlmLHkg67jmdYYLUq-16">
          <mxGeometry relative="1" as="geometry">
            <Array as="points">
              <mxPoint x="450" y="820" />
              <mxPoint x="640" y="820" />
            </Array>
          </mxGeometry>
        </mxCell>
        <mxCell id="kMaZlmLHkg67jmdYYLUq-11" value="" style="ellipse;whiteSpace=wrap;html=1;" vertex="1" parent="1">
          <mxGeometry x="330" y="730" width="120" height="80" as="geometry" />
        </mxCell>
        <mxCell id="kMaZlmLHkg67jmdYYLUq-12" value="" style="ellipse;whiteSpace=wrap;html=1;" vertex="1" parent="1">
          <mxGeometry x="570" y="210" width="120" height="80" as="geometry" />
        </mxCell>
        <mxCell id="kMaZlmLHkg67jmdYYLUq-73" value="работает" style="edgeStyle=orthogonalEdgeStyle;rounded=0;orthogonalLoop=1;jettySize=auto;html=1;exitX=0.5;exitY=0;exitDx=0;exitDy=0;entryX=1;entryY=0.5;entryDx=0;entryDy=0;" edge="1" parent="1" source="kMaZlmLHkg67jmdYYLUq-13" target="kMaZlmLHkg67jmdYYLUq-8">
          <mxGeometry relative="1" as="geometry">
            <Array as="points">
              <mxPoint x="640" y="510" />
              <mxPoint x="450" y="510" />
            </Array>
          </mxGeometry>
        </mxCell>
        <mxCell id="kMaZlmLHkg67jmdYYLUq-13" value="" style="ellipse;whiteSpace=wrap;html=1;" vertex="1" parent="1">
          <mxGeometry x="580" y="570" width="120" height="80" as="geometry" />
        </mxCell>
        <mxCell id="kMaZlmLHkg67jmdYYLUq-14" value="" style="ellipse;whiteSpace=wrap;html=1;" vertex="1" parent="1">
          <mxGeometry x="580" y="410" width="120" height="80" as="geometry" />
        </mxCell>
        <mxCell id="kMaZlmLHkg67jmdYYLUq-55" value="приняла" style="edgeStyle=orthogonalEdgeStyle;rounded=0;orthogonalLoop=1;jettySize=auto;html=1;exitX=1;exitY=0.5;exitDx=0;exitDy=0;entryX=1;entryY=0;entryDx=0;entryDy=0;" edge="1" parent="1" source="kMaZlmLHkg67jmdYYLUq-15" target="kMaZlmLHkg67jmdYYLUq-18">
          <mxGeometry relative="1" as="geometry">
            <Array as="points">
              <mxPoint x="720" y="750" />
              <mxPoint x="720" y="1002" />
            </Array>
          </mxGeometry>
        </mxCell>
        <mxCell id="kMaZlmLHkg67jmdYYLUq-72" value="работает" style="edgeStyle=orthogonalEdgeStyle;rounded=0;orthogonalLoop=1;jettySize=auto;html=1;exitX=1;exitY=0;exitDx=0;exitDy=0;entryX=1;entryY=0.5;entryDx=0;entryDy=0;" edge="1" parent="1" source="kMaZlmLHkg67jmdYYLUq-15" target="kMaZlmLHkg67jmdYYLUq-9">
          <mxGeometry relative="1" as="geometry">
            <mxPoint x="460" y="220" as="targetPoint" />
            <Array as="points">
              <mxPoint x="740" y="722" />
              <mxPoint x="740" y="330" />
            </Array>
          </mxGeometry>
        </mxCell>
        <mxCell id="kMaZlmLHkg67jmdYYLUq-15" value="" style="ellipse;whiteSpace=wrap;html=1;" vertex="1" parent="1">
          <mxGeometry x="580" y="710" width="120" height="80" as="geometry" />
        </mxCell>
        <mxCell id="kMaZlmLHkg67jmdYYLUq-56" value="сделал" style="edgeStyle=orthogonalEdgeStyle;rounded=0;orthogonalLoop=1;jettySize=auto;html=1;exitX=0.5;exitY=1;exitDx=0;exitDy=0;" edge="1" parent="1" source="kMaZlmLHkg67jmdYYLUq-16" target="kMaZlmLHkg67jmdYYLUq-18">
          <mxGeometry relative="1" as="geometry" />
        </mxCell>
        <mxCell id="kMaZlmLHkg67jmdYYLUq-16" value="" style="ellipse;whiteSpace=wrap;html=1;" vertex="1" parent="1">
          <mxGeometry x="580" y="850" width="120" height="80" as="geometry" />
        </mxCell>
        <mxCell id="kMaZlmLHkg67jmdYYLUq-58" style="edgeStyle=orthogonalEdgeStyle;rounded=0;orthogonalLoop=1;jettySize=auto;html=1;exitX=1;exitY=0.5;exitDx=0;exitDy=0;entryX=0;entryY=0;entryDx=0;entryDy=0;" edge="1" parent="1" source="kMaZlmLHkg67jmdYYLUq-17" target="kMaZlmLHkg67jmdYYLUq-18">
          <mxGeometry relative="1" as="geometry">
            <Array as="points">
              <mxPoint x="520" y="910" />
              <mxPoint x="520" y="1002" />
            </Array>
          </mxGeometry>
        </mxCell>
        <mxCell id="kMaZlmLHkg67jmdYYLUq-17" value="" style="ellipse;whiteSpace=wrap;html=1;" vertex="1" parent="1">
          <mxGeometry x="330" y="870" width="120" height="80" as="geometry" />
        </mxCell>
        <mxCell id="kMaZlmLHkg67jmdYYLUq-18" value="" style="ellipse;whiteSpace=wrap;html=1;" vertex="1" parent="1">
          <mxGeometry x="580" y="990" width="120" height="80" as="geometry" />
        </mxCell>
        <mxCell id="kMaZlmLHkg67jmdYYLUq-19" value="Адрес" style="text;html=1;strokeColor=none;fillColor=none;align=center;verticalAlign=middle;whiteSpace=wrap;rounded=0;" vertex="1" parent="1">
          <mxGeometry x="130" y="235" width="60" height="30" as="geometry" />
        </mxCell>
        <mxCell id="kMaZlmLHkg67jmdYYLUq-20" value="АЗС" style="text;html=1;strokeColor=none;fillColor=none;align=center;verticalAlign=middle;whiteSpace=wrap;rounded=0;" vertex="1" parent="1">
          <mxGeometry x="130" y="400" width="60" height="30" as="geometry" />
        </mxCell>
        <mxCell id="kMaZlmLHkg67jmdYYLUq-21" value="Улица У1" style="text;html=1;strokeColor=none;fillColor=none;align=center;verticalAlign=middle;whiteSpace=wrap;rounded=0;" vertex="1" parent="1">
          <mxGeometry x="130" y="560" width="60" height="30" as="geometry" />
        </mxCell>
        <mxCell id="kMaZlmLHkg67jmdYYLUq-22" value="Улица У2" style="text;html=1;strokeColor=none;fillColor=none;align=center;verticalAlign=middle;whiteSpace=wrap;rounded=0;" vertex="1" parent="1">
          <mxGeometry x="360" y="155" width="60" height="30" as="geometry" />
        </mxCell>
        <mxCell id="kMaZlmLHkg67jmdYYLUq-23" value="Человек" style="text;html=1;strokeColor=none;fillColor=none;align=center;verticalAlign=middle;whiteSpace=wrap;rounded=0;" vertex="1" parent="1">
          <mxGeometry x="130" y="700" width="60" height="30" as="geometry" />
        </mxCell>
        <mxCell id="kMaZlmLHkg67jmdYYLUq-24" value="Топливо" style="text;html=1;strokeColor=none;fillColor=none;align=center;verticalAlign=middle;whiteSpace=wrap;rounded=0;" vertex="1" parent="1">
          <mxGeometry x="130" y="900" width="60" height="30" as="geometry" />
        </mxCell>
        <mxCell id="kMaZlmLHkg67jmdYYLUq-25" value="АЗС А1" style="text;html=1;strokeColor=none;fillColor=none;align=center;verticalAlign=middle;whiteSpace=wrap;rounded=0;" vertex="1" parent="1">
          <mxGeometry x="360" y="315" width="60" height="30" as="geometry" />
        </mxCell>
        <mxCell id="kMaZlmLHkg67jmdYYLUq-26" value="АЗС A2" style="text;html=1;strokeColor=none;fillColor=none;align=center;verticalAlign=middle;whiteSpace=wrap;rounded=0;" vertex="1" parent="1">
          <mxGeometry x="360" y="475" width="60" height="30" as="geometry" />
        </mxCell>
        <mxCell id="kMaZlmLHkg67jmdYYLUq-27" value="Кассир" style="text;html=1;strokeColor=none;fillColor=none;align=center;verticalAlign=middle;whiteSpace=wrap;rounded=0;" vertex="1" parent="1">
          <mxGeometry x="360" y="620" width="60" height="30" as="geometry" />
        </mxCell>
        <mxCell id="kMaZlmLHkg67jmdYYLUq-28" value="Клиент" style="text;html=1;strokeColor=none;fillColor=none;align=center;verticalAlign=middle;whiteSpace=wrap;rounded=0;" vertex="1" parent="1">
          <mxGeometry x="364" y="760" width="60" height="30" as="geometry" />
        </mxCell>
        <mxCell id="kMaZlmLHkg67jmdYYLUq-29" value="Выбор топлива" style="text;html=1;strokeColor=none;fillColor=none;align=center;verticalAlign=middle;whiteSpace=wrap;rounded=0;" vertex="1" parent="1">
          <mxGeometry x="360" y="897" width="60" height="30" as="geometry" />
        </mxCell>
        <mxCell id="kMaZlmLHkg67jmdYYLUq-30" value="Дорогая АЗС" style="text;html=1;strokeColor=none;fillColor=none;align=center;verticalAlign=middle;whiteSpace=wrap;rounded=0;" vertex="1" parent="1">
          <mxGeometry x="600" y="235" width="60" height="30" as="geometry" />
        </mxCell>
        <mxCell id="kMaZlmLHkg67jmdYYLUq-31" value="Недорогая АЗС" style="text;html=1;strokeColor=none;fillColor=none;align=center;verticalAlign=middle;whiteSpace=wrap;rounded=0;" vertex="1" parent="1">
          <mxGeometry x="610" y="435" width="60" height="30" as="geometry" />
        </mxCell>
        <mxCell id="kMaZlmLHkg67jmdYYLUq-32" value="К2" style="text;html=1;strokeColor=none;fillColor=none;align=center;verticalAlign=middle;whiteSpace=wrap;rounded=0;" vertex="1" parent="1">
          <mxGeometry x="610" y="600" width="60" height="30" as="geometry" />
        </mxCell>
        <mxCell id="kMaZlmLHkg67jmdYYLUq-33" value="К1" style="text;html=1;strokeColor=none;fillColor=none;align=center;verticalAlign=middle;whiteSpace=wrap;rounded=0;" vertex="1" parent="1">
          <mxGeometry x="610" y="740" width="60" height="30" as="geometry" />
        </mxCell>
        <mxCell id="kMaZlmLHkg67jmdYYLUq-34" value="С" style="text;html=1;strokeColor=none;fillColor=none;align=center;verticalAlign=middle;whiteSpace=wrap;rounded=0;" vertex="1" parent="1">
          <mxGeometry x="610" y="875" width="60" height="30" as="geometry" />
        </mxCell>
        <mxCell id="kMaZlmLHkg67jmdYYLUq-35" value="Выбор топлива клиентом С" style="text;html=1;strokeColor=none;fillColor=none;align=center;verticalAlign=middle;whiteSpace=wrap;rounded=0;" vertex="1" parent="1">
          <mxGeometry x="590" y="1015" width="110" height="30" as="geometry" />
        </mxCell>
        <mxCell id="kMaZlmLHkg67jmdYYLUq-50" value="стоит" style="edgeStyle=orthogonalEdgeStyle;rounded=0;orthogonalLoop=1;jettySize=auto;html=1;exitX=0.5;exitY=1;exitDx=0;exitDy=0;" edge="1" parent="1" source="kMaZlmLHkg67jmdYYLUq-36" target="kMaZlmLHkg67jmdYYLUq-37">
          <mxGeometry relative="1" as="geometry" />
        </mxCell>
        <mxCell id="kMaZlmLHkg67jmdYYLUq-54" value="часть" style="edgeStyle=orthogonalEdgeStyle;rounded=0;orthogonalLoop=1;jettySize=auto;html=1;exitX=1;exitY=0.5;exitDx=0;exitDy=0;entryX=1;entryY=0.5;entryDx=0;entryDy=0;" edge="1" parent="1" source="kMaZlmLHkg67jmdYYLUq-36" target="kMaZlmLHkg67jmdYYLUq-35">
          <mxGeometry relative="1" as="geometry" />
        </mxCell>
        <mxCell id="kMaZlmLHkg67jmdYYLUq-36" value="" style="ellipse;whiteSpace=wrap;html=1;" vertex="1" parent="1">
          <mxGeometry x="590" y="1140" width="120" height="80" as="geometry" />
        </mxCell>
        <mxCell id="kMaZlmLHkg67jmdYYLUq-37" value="" style="ellipse;whiteSpace=wrap;html=1;" vertex="1" parent="1">
          <mxGeometry x="590" y="1280" width="120" height="80" as="geometry" />
        </mxCell>
        <mxCell id="kMaZlmLHkg67jmdYYLUq-49" value="стоит" style="edgeStyle=orthogonalEdgeStyle;rounded=0;orthogonalLoop=1;jettySize=auto;html=1;exitX=0.5;exitY=1;exitDx=0;exitDy=0;" edge="1" parent="1" source="kMaZlmLHkg67jmdYYLUq-38" target="kMaZlmLHkg67jmdYYLUq-39">
          <mxGeometry relative="1" as="geometry" />
        </mxCell>
        <mxCell id="kMaZlmLHkg67jmdYYLUq-53" value="часть" style="edgeStyle=orthogonalEdgeStyle;rounded=0;orthogonalLoop=1;jettySize=auto;html=1;exitX=0.5;exitY=0;exitDx=0;exitDy=0;entryX=0;entryY=0.5;entryDx=0;entryDy=0;" edge="1" parent="1" source="kMaZlmLHkg67jmdYYLUq-38" target="kMaZlmLHkg67jmdYYLUq-18">
          <mxGeometry relative="1" as="geometry" />
        </mxCell>
        <mxCell id="kMaZlmLHkg67jmdYYLUq-38" value="" style="ellipse;whiteSpace=wrap;html=1;" vertex="1" parent="1">
          <mxGeometry x="334" y="1140" width="120" height="80" as="geometry" />
        </mxCell>
        <mxCell id="kMaZlmLHkg67jmdYYLUq-39" value="" style="ellipse;whiteSpace=wrap;html=1;" vertex="1" parent="1">
          <mxGeometry x="334" y="1280" width="120" height="80" as="geometry" />
        </mxCell>
        <mxCell id="kMaZlmLHkg67jmdYYLUq-47" value="например" style="edgeStyle=orthogonalEdgeStyle;rounded=0;orthogonalLoop=1;jettySize=auto;html=1;exitX=0;exitY=0.5;exitDx=0;exitDy=0;entryX=0.5;entryY=1;entryDx=0;entryDy=0;" edge="1" parent="1" source="kMaZlmLHkg67jmdYYLUq-40" target="kMaZlmLHkg67jmdYYLUq-39">
          <mxGeometry relative="1" as="geometry">
            <Array as="points">
              <mxPoint x="394" y="1500" />
            </Array>
          </mxGeometry>
        </mxCell>
        <mxCell id="kMaZlmLHkg67jmdYYLUq-48" value="например" style="edgeStyle=orthogonalEdgeStyle;rounded=0;orthogonalLoop=1;jettySize=auto;html=1;entryX=0.583;entryY=1.025;entryDx=0;entryDy=0;entryPerimeter=0;" edge="1" parent="1" source="kMaZlmLHkg67jmdYYLUq-40" target="kMaZlmLHkg67jmdYYLUq-37">
          <mxGeometry relative="1" as="geometry" />
        </mxCell>
        <mxCell id="kMaZlmLHkg67jmdYYLUq-40" value="" style="ellipse;whiteSpace=wrap;html=1;" vertex="1" parent="1">
          <mxGeometry x="460" y="1460" width="120" height="80" as="geometry" />
        </mxCell>
        <mxCell id="kMaZlmLHkg67jmdYYLUq-41" value="Т1" style="text;html=1;strokeColor=none;fillColor=none;align=center;verticalAlign=middle;whiteSpace=wrap;rounded=0;" vertex="1" parent="1">
          <mxGeometry x="360" y="1165" width="60" height="30" as="geometry" />
        </mxCell>
        <mxCell id="kMaZlmLHkg67jmdYYLUq-42" value="Т2" style="text;html=1;strokeColor=none;fillColor=none;align=center;verticalAlign=middle;whiteSpace=wrap;rounded=0;" vertex="1" parent="1">
          <mxGeometry x="620" y="1165" width="60" height="30" as="geometry" />
        </mxCell>
        <mxCell id="kMaZlmLHkg67jmdYYLUq-43" value="100 р" style="text;html=1;strokeColor=none;fillColor=none;align=center;verticalAlign=middle;whiteSpace=wrap;rounded=0;" vertex="1" parent="1">
          <mxGeometry x="364" y="1304" width="60" height="30" as="geometry" />
        </mxCell>
        <mxCell id="kMaZlmLHkg67jmdYYLUq-44" value="200 р" style="text;html=1;strokeColor=none;fillColor=none;align=center;verticalAlign=middle;whiteSpace=wrap;rounded=0;" vertex="1" parent="1">
          <mxGeometry x="620" y="1305" width="60" height="30" as="geometry" />
        </mxCell>
        <mxCell id="kMaZlmLHkg67jmdYYLUq-45" value="Цена" style="text;html=1;strokeColor=none;fillColor=none;align=center;verticalAlign=middle;whiteSpace=wrap;rounded=0;" vertex="1" parent="1">
          <mxGeometry x="490" y="1485" width="60" height="30" as="geometry" />
        </mxCell>
      </root>
    </mxGraphModel>
  </diagram>
</mxfile>
